<?xml version="1.0"?>
<svg xmlns="http://www.w3.org/2000/svg" id="Capa_1" enable-background="new 0 0 512 512" height="512px" viewBox="0 0 512 512" width="512px"><g><path d="m408.028 144.972c-29.393-29.393-65.8-49.219-105.445-57.933 5.944-8.89 9.417-19.565 9.417-31.039 0-30.879-25.121-56-56-56s-56 25.121-56 56c0 11.474 3.473 22.149 9.417 31.039-39.645 8.714-76.052 28.54-105.445 57.933-40.608 40.608-62.972 94.599-62.972 152.028s22.364 111.42 62.972 152.028 94.599 62.972 152.028 62.972 111.42-22.364 152.028-62.972 62.972-94.599 62.972-152.028-22.364-111.42-62.972-152.028zm-152.028-114.972c14.337 0 26 11.663 26 26s-11.663 26-26 26-26-11.663-26-26 11.663-26 26-26zm0 452c-102.01 0-185-82.99-185-185s82.99-185 185-185 185 82.99 185 185-82.99 185-185 185z" fill="#FFFFFF"/><path d="m256 142c-85.468 0-155 69.532-155 155s69.532 155 155 155 155-69.532 155-155-69.532-155-155-155zm15 279.097v-14.097c0-8.284-6.716-15-15-15s-15 6.716-15 15v14.097c-56.958-6.843-102.254-52.139-109.097-109.097h14.097c8.284 0 15-6.716 15-15s-6.716-15-15-15h-14.097c6.843-56.958 52.138-102.254 109.097-109.097v14.097c0 8.284 6.716 15 15 15s15-6.716 15-15v-14.097c56.958 6.843 102.254 52.138 109.097 109.097h-14.097c-8.284 0-15 6.716-15 15s6.716 15 15 15h14.097c-6.843 56.958-52.139 102.254-109.097 109.097z" fill="#FFFFFF"/><path d="m312.932 219.944-84.853 42.427c-2.903 1.451-5.257 3.805-6.708 6.708l-42.427 84.853c-2.888 5.774-1.756 12.749 2.81 17.314 2.88 2.881 6.719 4.394 10.61 4.394 2.277 0 4.573-.518 6.704-1.584l84.853-42.427c2.903-1.451 5.257-3.805 6.708-6.708l42.427-84.853c2.888-5.774 1.756-12.749-2.81-17.314-4.565-4.567-11.543-5.699-17.314-2.81zm-87.031 107.155 12.995-25.989 12.994 12.994zm47.202-34.208-12.994-12.994 25.989-12.995z" fill="#FFFFFF"/></g></svg>
