<?xml version="1.0"?>
<svg xmlns="http://www.w3.org/2000/svg" id="_x31__x2C_5" enable-background="new 0 0 24 24" height="512px" viewBox="0 0 24 24" width="512px"><path d="m12 13c-.174 0-.348-.06-.487-.18-.185-.158-4.513-3.905-4.513-7.757 0-2.792 2.243-5.063 5-5.063s5 2.271 5 5.063c0 3.853-4.328 7.6-4.513 7.757-.139.12-.313.18-.487.18zm0-11.5c-1.93 0-3.5 1.598-3.5 3.563 0 2.482 2.436 5.126 3.5 6.164 1.064-1.037 3.5-3.682 3.5-6.164 0-1.965-1.57-3.563-3.5-3.563z" fill="#FFFFFF"/><path d="m12 7c-1.103 0-2-.897-2-2s.897-2 2-2 2 .897 2 2-.897 2-2 2zm0-2.5c-.275 0-.5.224-.5.5s.225.5.5.5.5-.224.5-.5-.225-.5-.5-.5z" fill="#FFFFFF"/><path d="m21.04 24h-18.08c-.776 0-1.521-.331-2.042-.908-.52-.576-.772-1.348-.694-2.119l1.6-15.748c.138-1.41 1.314-2.475 2.736-2.475.414 0 .75.336.75.75s-.336.75-.75.75c-.646 0-1.181.482-1.243 1.123l-1.601 15.754c-.036.354.076.695.315.96.241.266.571.413.929.413h18.08c.358 0 .688-.147.929-.413.239-.265.352-.606.315-.961l-1.6-15.751c-.063-.643-.597-1.125-1.244-1.125-.414 0-.75-.336-.75-.75s.336-.75.75-.75c1.422 0 2.598 1.065 2.735 2.477l1.601 15.746c.078.772-.175 1.544-.694 2.12-.521.576-1.266.907-2.042.907z" fill="#FFFFFF"/><path d="m2 14.51c-.414 0-.749-.335-.75-.749s.335-.75.749-.751l6.7-.01h.001c.414 0 .749.335.75.749s-.335.751-.749.751z" fill="#FFFFFF"/><path d="m9.45 23.485-1.232-.855 6.466-9.307c.14-.202.37-.323.615-.323l6.7-.01.002 1.5-6.309.01z" fill="#FFFFFF"/></svg>
